<?xml version="1.0" encoding="iso-8859-1"?>
<!-- Generator: Adobe Illustrator 19.0.0, SVG Export Plug-In . SVG Version: 6.00 Build 0)  -->
<svg xmlns="http://www.w3.org/2000/svg" xmlns:xlink="http://www.w3.org/1999/xlink" version="1.1" id="Layer_1" x="0px" y="0px" viewBox="0 0 512 512" style="enable-background:new 0 0 512 512;" xml:space="preserve">
<path style="fill:#2D527C;" d="M236.362,272.612H16.612C7.439,272.612,0,265.175,0,256s7.439-16.612,16.612-16.612h219.751  c9.173,0,16.612,7.437,16.612,16.612S245.537,272.612,236.362,272.612z"/>
<polygon style="fill:#CEE8FA;" points="217.99,190.241 331.89,256 217.99,321.761 "/>
<g>
	<path style="fill:#2D527C;" d="M217.991,338.373c-2.869,0-5.736-0.743-8.306-2.226c-5.14-2.967-8.306-8.45-8.306-14.386v-131.52   c0-5.935,3.166-11.419,8.306-14.386c5.14-2.967,11.472-2.967,16.612,0l113.899,65.759c5.14,2.967,8.306,8.45,8.306,14.386   s-3.166,11.419-8.306,14.386l-113.899,65.761C223.727,337.632,220.859,338.373,217.991,338.373z M234.603,219.012v73.976   L298.667,256L234.603,219.012z"/>
	<path style="fill:#2D527C;" d="M278.736,489.264c-47.485,0-93.184-14.142-132.157-40.898   c-38.855-26.674-68.389-64.055-85.413-108.103c-1.973-5.11-1.302-10.864,1.794-15.382c3.098-4.518,8.223-7.218,13.701-7.218h75.864   c9.173,0,16.612,7.437,16.612,16.612s-7.439,16.612-16.612,16.612h-50.02c34.504,64.603,101.279,105.153,176.229,105.153   c110.302,0,200.041-89.738,200.041-200.041S389.038,55.961,278.736,55.961c-74.951,0-141.723,40.551-176.229,105.153h41.106   c20.223-28.707,49.33-50.44,82.866-61.68c16.911-5.668,34.493-8.54,52.257-8.54c91.041,0,165.108,74.067,165.108,165.108   s-74.067,165.108-165.108,165.108c-17.763,0-35.343-2.872-52.251-8.538c-8.7-2.915-13.389-12.329-10.474-21.029   s12.324-13.386,21.029-10.474c13.497,4.523,27.526,6.818,41.696,6.818c72.72,0,131.884-59.163,131.884-131.884   s-59.163-131.884-131.884-131.884c-14.17,0-28.2,2.294-41.701,6.817c-29.21,9.791-54.213,29.522-70.402,55.561   c-3.03,4.877-8.366,7.841-14.107,7.841H76.662c-5.479,0-10.603-2.699-13.701-7.218c-3.096-4.518-3.769-10.273-1.794-15.383   c17.024-44.048,46.558-81.429,85.413-108.103c38.973-26.755,84.672-40.898,132.157-40.898C407.359,22.736,512,127.378,512,256   S407.359,489.264,278.736,489.264z"/>
</g>
<g>
</g>
<g>
</g>
<g>
</g>
<g>
</g>
<g>
</g>
<g>
</g>
<g>
</g>
<g>
</g>
<g>
</g>
<g>
</g>
<g>
</g>
<g>
</g>
<g>
</g>
<g>
</g>
<g>
</g>
</svg>
